<mxfile host="app.diagrams.net" modified="2022-09-09T12:31:51.304Z" agent="5.0 (Macintosh; Intel Mac OS X 10_15_7) AppleWebKit/537.36 (KHTML, like Gecko) Chrome/105.0.0.0 Safari/537.36 Edg/105.0.1343.27" etag="5N84eyBVnw0wlzUwuaaX" version="20.3.0" type="github" pages="3">
  <diagram id="C5RBs43oDa-KdzZeNtuy" name="Page-1">
    <mxGraphModel dx="1952" dy="1224" grid="1" gridSize="10" guides="1" tooltips="1" connect="1" arrows="1" fold="1" page="1" pageScale="1" pageWidth="827" pageHeight="1169" math="0" shadow="0">
      <root>
        <mxCell id="WIyWlLk6GJQsqaUBKTNV-0" />
        <mxCell id="WIyWlLk6GJQsqaUBKTNV-1" parent="WIyWlLk6GJQsqaUBKTNV-0" />
      </root>
    </mxGraphModel>
  </diagram>
  <diagram id="TQaL95ntO3nAIAnBOufF" name="第 2 页">
    <mxGraphModel dx="1148" dy="720" grid="1" gridSize="10" guides="1" tooltips="1" connect="1" arrows="1" fold="1" page="1" pageScale="1" pageWidth="827" pageHeight="1169" math="0" shadow="0">
      <root>
        <mxCell id="0" />
        <mxCell id="1" parent="0" />
        <mxCell id="iqP_wGRCHYUFrl74HEmi-9" value="" style="edgeStyle=orthogonalEdgeStyle;rounded=0;orthogonalLoop=1;jettySize=auto;html=1;" parent="1" source="iqP_wGRCHYUFrl74HEmi-1" edge="1">
          <mxGeometry relative="1" as="geometry">
            <mxPoint x="354" y="210" as="targetPoint" />
          </mxGeometry>
        </mxCell>
        <mxCell id="iqP_wGRCHYUFrl74HEmi-1" value="点击获得藏品" style="rounded=1;whiteSpace=wrap;html=1;" parent="1" vertex="1">
          <mxGeometry x="294" y="80" width="120" height="60" as="geometry" />
        </mxCell>
        <mxCell id="iqP_wGRCHYUFrl74HEmi-12" value="" style="edgeStyle=orthogonalEdgeStyle;rounded=0;orthogonalLoop=1;jettySize=auto;html=1;" parent="1" source="iqP_wGRCHYUFrl74HEmi-10" edge="1">
          <mxGeometry relative="1" as="geometry">
            <mxPoint x="454" y="250" as="targetPoint" />
          </mxGeometry>
        </mxCell>
        <mxCell id="iqP_wGRCHYUFrl74HEmi-13" value="yes" style="edgeLabel;html=1;align=center;verticalAlign=middle;resizable=0;points=[];" parent="iqP_wGRCHYUFrl74HEmi-12" vertex="1" connectable="0">
          <mxGeometry x="-0.1441" y="3" relative="1" as="geometry">
            <mxPoint as="offset" />
          </mxGeometry>
        </mxCell>
        <mxCell id="iqP_wGRCHYUFrl74HEmi-15" value="" style="edgeStyle=orthogonalEdgeStyle;rounded=0;orthogonalLoop=1;jettySize=auto;html=1;entryX=0.5;entryY=0;entryDx=0;entryDy=0;" parent="1" source="iqP_wGRCHYUFrl74HEmi-10" target="iqP_wGRCHYUFrl74HEmi-48" edge="1">
          <mxGeometry relative="1" as="geometry">
            <mxPoint x="354" y="640" as="targetPoint" />
            <Array as="points">
              <mxPoint x="120" y="250" />
              <mxPoint x="120" y="650" />
            </Array>
          </mxGeometry>
        </mxCell>
        <mxCell id="iqP_wGRCHYUFrl74HEmi-17" value="no" style="edgeLabel;html=1;align=center;verticalAlign=middle;resizable=0;points=[];" parent="iqP_wGRCHYUFrl74HEmi-15" vertex="1" connectable="0">
          <mxGeometry x="-0.2944" y="-2" relative="1" as="geometry">
            <mxPoint x="2" y="16" as="offset" />
          </mxGeometry>
        </mxCell>
        <mxCell id="iqP_wGRCHYUFrl74HEmi-10" value="是否为推荐作品？" style="rhombus;whiteSpace=wrap;html=1;" parent="1" vertex="1">
          <mxGeometry x="314" y="210" width="80" height="80" as="geometry" />
        </mxCell>
        <mxCell id="iqP_wGRCHYUFrl74HEmi-20" value="" style="edgeStyle=orthogonalEdgeStyle;rounded=0;orthogonalLoop=1;jettySize=auto;html=1;" parent="1" source="iqP_wGRCHYUFrl74HEmi-18" target="iqP_wGRCHYUFrl74HEmi-19" edge="1">
          <mxGeometry relative="1" as="geometry" />
        </mxCell>
        <mxCell id="iqP_wGRCHYUFrl74HEmi-21" value="yes" style="edgeLabel;html=1;align=center;verticalAlign=middle;resizable=0;points=[];" parent="iqP_wGRCHYUFrl74HEmi-20" vertex="1" connectable="0">
          <mxGeometry x="0.172" y="1" relative="1" as="geometry">
            <mxPoint as="offset" />
          </mxGeometry>
        </mxCell>
        <mxCell id="iqP_wGRCHYUFrl74HEmi-25" value="" style="edgeStyle=orthogonalEdgeStyle;rounded=0;orthogonalLoop=1;jettySize=auto;html=1;" parent="1" source="iqP_wGRCHYUFrl74HEmi-18" edge="1">
          <mxGeometry relative="1" as="geometry">
            <mxPoint x="490" y="330" as="targetPoint" />
          </mxGeometry>
        </mxCell>
        <mxCell id="iqP_wGRCHYUFrl74HEmi-26" value="no" style="edgeLabel;html=1;align=center;verticalAlign=middle;resizable=0;points=[];" parent="iqP_wGRCHYUFrl74HEmi-25" vertex="1" connectable="0">
          <mxGeometry x="0.2452" y="-2" relative="1" as="geometry">
            <mxPoint as="offset" />
          </mxGeometry>
        </mxCell>
        <mxCell id="iqP_wGRCHYUFrl74HEmi-18" value="用户当前藏品=0" style="rhombus;whiteSpace=wrap;html=1;" parent="1" vertex="1">
          <mxGeometry x="450" y="210" width="80" height="80" as="geometry" />
        </mxCell>
        <mxCell id="iqP_wGRCHYUFrl74HEmi-19" value="直接获得数字藏品" style="whiteSpace=wrap;html=1;" parent="1" vertex="1">
          <mxGeometry x="590" y="220" width="120" height="60" as="geometry" />
        </mxCell>
        <mxCell id="iqP_wGRCHYUFrl74HEmi-48" value="不获得藏品" style="whiteSpace=wrap;html=1;" parent="1" vertex="1">
          <mxGeometry x="60" y="585" width="120" height="60" as="geometry" />
        </mxCell>
        <mxCell id="51BnOodMXktMMo8dSc9n-1" value="" style="edgeStyle=orthogonalEdgeStyle;rounded=0;orthogonalLoop=1;jettySize=auto;html=1;" edge="1" parent="1" source="51BnOodMXktMMo8dSc9n-5" target="51BnOodMXktMMo8dSc9n-6">
          <mxGeometry relative="1" as="geometry" />
        </mxCell>
        <mxCell id="51BnOodMXktMMo8dSc9n-2" value="yes" style="edgeLabel;html=1;align=center;verticalAlign=middle;resizable=0;points=[];" vertex="1" connectable="0" parent="51BnOodMXktMMo8dSc9n-1">
          <mxGeometry x="0.172" y="1" relative="1" as="geometry">
            <mxPoint as="offset" />
          </mxGeometry>
        </mxCell>
        <mxCell id="51BnOodMXktMMo8dSc9n-3" value="" style="edgeStyle=orthogonalEdgeStyle;rounded=0;orthogonalLoop=1;jettySize=auto;html=1;" edge="1" parent="1" source="51BnOodMXktMMo8dSc9n-5">
          <mxGeometry relative="1" as="geometry">
            <mxPoint x="489.9999999999999" y="450" as="targetPoint" />
          </mxGeometry>
        </mxCell>
        <mxCell id="51BnOodMXktMMo8dSc9n-4" value="no" style="edgeLabel;html=1;align=center;verticalAlign=middle;resizable=0;points=[];" vertex="1" connectable="0" parent="51BnOodMXktMMo8dSc9n-3">
          <mxGeometry x="0.2452" y="-2" relative="1" as="geometry">
            <mxPoint as="offset" />
          </mxGeometry>
        </mxCell>
        <mxCell id="51BnOodMXktMMo8dSc9n-5" value="用户当前藏品=1" style="rhombus;whiteSpace=wrap;html=1;" vertex="1" parent="1">
          <mxGeometry x="450" y="330" width="80" height="80" as="geometry" />
        </mxCell>
        <mxCell id="51BnOodMXktMMo8dSc9n-6" value="50%获得数字藏品" style="whiteSpace=wrap;html=1;" vertex="1" parent="1">
          <mxGeometry x="590" y="340" width="120" height="60" as="geometry" />
        </mxCell>
        <mxCell id="51BnOodMXktMMo8dSc9n-7" value="" style="edgeStyle=orthogonalEdgeStyle;rounded=0;orthogonalLoop=1;jettySize=auto;html=1;" edge="1" parent="1" source="51BnOodMXktMMo8dSc9n-11" target="51BnOodMXktMMo8dSc9n-12">
          <mxGeometry relative="1" as="geometry" />
        </mxCell>
        <mxCell id="51BnOodMXktMMo8dSc9n-8" value="yes" style="edgeLabel;html=1;align=center;verticalAlign=middle;resizable=0;points=[];" vertex="1" connectable="0" parent="51BnOodMXktMMo8dSc9n-7">
          <mxGeometry x="0.172" y="1" relative="1" as="geometry">
            <mxPoint as="offset" />
          </mxGeometry>
        </mxCell>
        <mxCell id="51BnOodMXktMMo8dSc9n-9" value="" style="edgeStyle=orthogonalEdgeStyle;rounded=0;orthogonalLoop=1;jettySize=auto;html=1;" edge="1" parent="1" source="51BnOodMXktMMo8dSc9n-11">
          <mxGeometry relative="1" as="geometry">
            <mxPoint x="489.9999999999999" y="570" as="targetPoint" />
          </mxGeometry>
        </mxCell>
        <mxCell id="51BnOodMXktMMo8dSc9n-10" value="no" style="edgeLabel;html=1;align=center;verticalAlign=middle;resizable=0;points=[];" vertex="1" connectable="0" parent="51BnOodMXktMMo8dSc9n-9">
          <mxGeometry x="0.2452" y="-2" relative="1" as="geometry">
            <mxPoint as="offset" />
          </mxGeometry>
        </mxCell>
        <mxCell id="51BnOodMXktMMo8dSc9n-11" value="用户当前藏品=2" style="rhombus;whiteSpace=wrap;html=1;" vertex="1" parent="1">
          <mxGeometry x="450" y="450" width="80" height="80" as="geometry" />
        </mxCell>
        <mxCell id="51BnOodMXktMMo8dSc9n-12" value="40%" style="whiteSpace=wrap;html=1;" vertex="1" parent="1">
          <mxGeometry x="590" y="460" width="120" height="60" as="geometry" />
        </mxCell>
        <mxCell id="51BnOodMXktMMo8dSc9n-13" value="" style="edgeStyle=orthogonalEdgeStyle;rounded=0;orthogonalLoop=1;jettySize=auto;html=1;" edge="1" parent="1" source="51BnOodMXktMMo8dSc9n-17" target="51BnOodMXktMMo8dSc9n-18">
          <mxGeometry relative="1" as="geometry" />
        </mxCell>
        <mxCell id="51BnOodMXktMMo8dSc9n-14" value="yes" style="edgeLabel;html=1;align=center;verticalAlign=middle;resizable=0;points=[];" vertex="1" connectable="0" parent="51BnOodMXktMMo8dSc9n-13">
          <mxGeometry x="0.172" y="1" relative="1" as="geometry">
            <mxPoint as="offset" />
          </mxGeometry>
        </mxCell>
        <mxCell id="51BnOodMXktMMo8dSc9n-15" value="" style="edgeStyle=orthogonalEdgeStyle;rounded=0;orthogonalLoop=1;jettySize=auto;html=1;" edge="1" parent="1" source="51BnOodMXktMMo8dSc9n-17">
          <mxGeometry relative="1" as="geometry">
            <mxPoint x="489.9999999999999" y="690" as="targetPoint" />
          </mxGeometry>
        </mxCell>
        <mxCell id="51BnOodMXktMMo8dSc9n-16" value="no" style="edgeLabel;html=1;align=center;verticalAlign=middle;resizable=0;points=[];" vertex="1" connectable="0" parent="51BnOodMXktMMo8dSc9n-15">
          <mxGeometry x="0.2452" y="-2" relative="1" as="geometry">
            <mxPoint as="offset" />
          </mxGeometry>
        </mxCell>
        <mxCell id="51BnOodMXktMMo8dSc9n-17" value="用户当前藏品=3" style="rhombus;whiteSpace=wrap;html=1;" vertex="1" parent="1">
          <mxGeometry x="450" y="570" width="80" height="80" as="geometry" />
        </mxCell>
        <mxCell id="51BnOodMXktMMo8dSc9n-18" value="20%" style="whiteSpace=wrap;html=1;" vertex="1" parent="1">
          <mxGeometry x="590" y="580" width="120" height="60" as="geometry" />
        </mxCell>
        <mxCell id="51BnOodMXktMMo8dSc9n-19" value="" style="edgeStyle=orthogonalEdgeStyle;rounded=0;orthogonalLoop=1;jettySize=auto;html=1;" edge="1" parent="1" source="51BnOodMXktMMo8dSc9n-23" target="51BnOodMXktMMo8dSc9n-24">
          <mxGeometry relative="1" as="geometry" />
        </mxCell>
        <mxCell id="51BnOodMXktMMo8dSc9n-20" value="yes" style="edgeLabel;html=1;align=center;verticalAlign=middle;resizable=0;points=[];" vertex="1" connectable="0" parent="51BnOodMXktMMo8dSc9n-19">
          <mxGeometry x="0.172" y="1" relative="1" as="geometry">
            <mxPoint as="offset" />
          </mxGeometry>
        </mxCell>
        <mxCell id="51BnOodMXktMMo8dSc9n-21" value="" style="edgeStyle=orthogonalEdgeStyle;rounded=0;orthogonalLoop=1;jettySize=auto;html=1;" edge="1" parent="1" source="51BnOodMXktMMo8dSc9n-23">
          <mxGeometry relative="1" as="geometry">
            <mxPoint x="489.9999999999999" y="810" as="targetPoint" />
          </mxGeometry>
        </mxCell>
        <mxCell id="51BnOodMXktMMo8dSc9n-22" value="no" style="edgeLabel;html=1;align=center;verticalAlign=middle;resizable=0;points=[];" vertex="1" connectable="0" parent="51BnOodMXktMMo8dSc9n-21">
          <mxGeometry x="0.2452" y="-2" relative="1" as="geometry">
            <mxPoint as="offset" />
          </mxGeometry>
        </mxCell>
        <mxCell id="51BnOodMXktMMo8dSc9n-23" value="用户当前藏品=4" style="rhombus;whiteSpace=wrap;html=1;" vertex="1" parent="1">
          <mxGeometry x="450" y="690" width="80" height="80" as="geometry" />
        </mxCell>
        <mxCell id="51BnOodMXktMMo8dSc9n-24" value="30%" style="whiteSpace=wrap;html=1;" vertex="1" parent="1">
          <mxGeometry x="590" y="700" width="120" height="60" as="geometry" />
        </mxCell>
        <mxCell id="51BnOodMXktMMo8dSc9n-25" value="" style="edgeStyle=orthogonalEdgeStyle;rounded=0;orthogonalLoop=1;jettySize=auto;html=1;" edge="1" parent="1" source="51BnOodMXktMMo8dSc9n-29" target="51BnOodMXktMMo8dSc9n-30">
          <mxGeometry relative="1" as="geometry" />
        </mxCell>
        <mxCell id="51BnOodMXktMMo8dSc9n-26" value="yes" style="edgeLabel;html=1;align=center;verticalAlign=middle;resizable=0;points=[];" vertex="1" connectable="0" parent="51BnOodMXktMMo8dSc9n-25">
          <mxGeometry x="0.172" y="1" relative="1" as="geometry">
            <mxPoint as="offset" />
          </mxGeometry>
        </mxCell>
        <mxCell id="51BnOodMXktMMo8dSc9n-27" value="" style="edgeStyle=orthogonalEdgeStyle;rounded=0;orthogonalLoop=1;jettySize=auto;html=1;" edge="1" parent="1" source="51BnOodMXktMMo8dSc9n-29">
          <mxGeometry relative="1" as="geometry">
            <mxPoint x="490" y="930" as="targetPoint" />
          </mxGeometry>
        </mxCell>
        <mxCell id="51BnOodMXktMMo8dSc9n-28" value="no" style="edgeLabel;html=1;align=center;verticalAlign=middle;resizable=0;points=[];" vertex="1" connectable="0" parent="51BnOodMXktMMo8dSc9n-27">
          <mxGeometry x="0.2452" y="-2" relative="1" as="geometry">
            <mxPoint as="offset" />
          </mxGeometry>
        </mxCell>
        <mxCell id="51BnOodMXktMMo8dSc9n-29" value="用户当前藏品=5" style="rhombus;whiteSpace=wrap;html=1;" vertex="1" parent="1">
          <mxGeometry x="450" y="810" width="80" height="80" as="geometry" />
        </mxCell>
        <mxCell id="51BnOodMXktMMo8dSc9n-30" value="30%" style="whiteSpace=wrap;html=1;" vertex="1" parent="1">
          <mxGeometry x="590" y="820" width="120" height="60" as="geometry" />
        </mxCell>
        <mxCell id="51BnOodMXktMMo8dSc9n-31" value="" style="edgeStyle=orthogonalEdgeStyle;rounded=0;orthogonalLoop=1;jettySize=auto;html=1;" edge="1" parent="1" source="51BnOodMXktMMo8dSc9n-35" target="51BnOodMXktMMo8dSc9n-36">
          <mxGeometry relative="1" as="geometry" />
        </mxCell>
        <mxCell id="51BnOodMXktMMo8dSc9n-32" value="yes" style="edgeLabel;html=1;align=center;verticalAlign=middle;resizable=0;points=[];" vertex="1" connectable="0" parent="51BnOodMXktMMo8dSc9n-31">
          <mxGeometry x="0.172" y="1" relative="1" as="geometry">
            <mxPoint as="offset" />
          </mxGeometry>
        </mxCell>
        <mxCell id="51BnOodMXktMMo8dSc9n-33" value="" style="edgeStyle=orthogonalEdgeStyle;rounded=0;orthogonalLoop=1;jettySize=auto;html=1;" edge="1" parent="1" source="51BnOodMXktMMo8dSc9n-35">
          <mxGeometry relative="1" as="geometry">
            <mxPoint x="490" y="1050" as="targetPoint" />
          </mxGeometry>
        </mxCell>
        <mxCell id="51BnOodMXktMMo8dSc9n-34" value="no" style="edgeLabel;html=1;align=center;verticalAlign=middle;resizable=0;points=[];" vertex="1" connectable="0" parent="51BnOodMXktMMo8dSc9n-33">
          <mxGeometry x="0.2452" y="-2" relative="1" as="geometry">
            <mxPoint as="offset" />
          </mxGeometry>
        </mxCell>
        <mxCell id="51BnOodMXktMMo8dSc9n-35" value="用户当前藏品=6" style="rhombus;whiteSpace=wrap;html=1;" vertex="1" parent="1">
          <mxGeometry x="450" y="930" width="80" height="80" as="geometry" />
        </mxCell>
        <mxCell id="51BnOodMXktMMo8dSc9n-36" value="30%" style="whiteSpace=wrap;html=1;" vertex="1" parent="1">
          <mxGeometry x="590" y="940" width="120" height="60" as="geometry" />
        </mxCell>
      </root>
    </mxGraphModel>
  </diagram>
  <diagram id="D2FSiG-mmYPPc4fW31I4" name="第 3 页">
    <mxGraphModel dx="781" dy="490" grid="1" gridSize="10" guides="1" tooltips="1" connect="1" arrows="1" fold="1" page="1" pageScale="1" pageWidth="827" pageHeight="1169" math="0" shadow="0">
      <root>
        <mxCell id="0" />
        <mxCell id="1" parent="0" />
        <mxCell id="LNcauqXgpq4mkPPqhFKb-3" value="" style="edgeStyle=orthogonalEdgeStyle;rounded=0;orthogonalLoop=1;jettySize=auto;html=1;" edge="1" parent="1" source="LNcauqXgpq4mkPPqhFKb-1">
          <mxGeometry relative="1" as="geometry">
            <mxPoint x="400" y="240" as="targetPoint" />
          </mxGeometry>
        </mxCell>
        <mxCell id="LNcauqXgpq4mkPPqhFKb-1" value="进入作品详情页" style="rounded=0;whiteSpace=wrap;html=1;" vertex="1" parent="1">
          <mxGeometry x="340" y="100" width="120" height="60" as="geometry" />
        </mxCell>
        <mxCell id="LNcauqXgpq4mkPPqhFKb-6" value="" style="edgeStyle=orthogonalEdgeStyle;rounded=0;orthogonalLoop=1;jettySize=auto;html=1;" edge="1" parent="1" source="LNcauqXgpq4mkPPqhFKb-4" target="LNcauqXgpq4mkPPqhFKb-5">
          <mxGeometry relative="1" as="geometry" />
        </mxCell>
        <mxCell id="LNcauqXgpq4mkPPqhFKb-7" value="no" style="edgeLabel;html=1;align=center;verticalAlign=middle;resizable=0;points=[];" vertex="1" connectable="0" parent="LNcauqXgpq4mkPPqhFKb-6">
          <mxGeometry x="-0.2778" y="1" relative="1" as="geometry">
            <mxPoint as="offset" />
          </mxGeometry>
        </mxCell>
        <mxCell id="LNcauqXgpq4mkPPqhFKb-9" value="" style="edgeStyle=orthogonalEdgeStyle;rounded=0;orthogonalLoop=1;jettySize=auto;html=1;" edge="1" parent="1" source="LNcauqXgpq4mkPPqhFKb-4" target="LNcauqXgpq4mkPPqhFKb-8">
          <mxGeometry relative="1" as="geometry" />
        </mxCell>
        <mxCell id="LNcauqXgpq4mkPPqhFKb-10" value="yes" style="edgeLabel;html=1;align=center;verticalAlign=middle;resizable=0;points=[];" vertex="1" connectable="0" parent="LNcauqXgpq4mkPPqhFKb-9">
          <mxGeometry x="0.0464" y="-1" relative="1" as="geometry">
            <mxPoint as="offset" />
          </mxGeometry>
        </mxCell>
        <mxCell id="LNcauqXgpq4mkPPqhFKb-4" value="是否为扫码进入？" style="rhombus;whiteSpace=wrap;html=1;" vertex="1" parent="1">
          <mxGeometry x="360" y="240" width="80" height="80" as="geometry" />
        </mxCell>
        <mxCell id="LNcauqXgpq4mkPPqhFKb-5" value="页面不出现获取藏品按钮" style="whiteSpace=wrap;html=1;" vertex="1" parent="1">
          <mxGeometry x="500" y="250" width="120" height="60" as="geometry" />
        </mxCell>
        <mxCell id="LNcauqXgpq4mkPPqhFKb-12" value="" style="edgeStyle=orthogonalEdgeStyle;rounded=0;orthogonalLoop=1;jettySize=auto;html=1;" edge="1" parent="1" source="LNcauqXgpq4mkPPqhFKb-8" target="LNcauqXgpq4mkPPqhFKb-11">
          <mxGeometry relative="1" as="geometry" />
        </mxCell>
        <mxCell id="LNcauqXgpq4mkPPqhFKb-13" value="no" style="edgeLabel;html=1;align=center;verticalAlign=middle;resizable=0;points=[];" vertex="1" connectable="0" parent="LNcauqXgpq4mkPPqhFKb-12">
          <mxGeometry x="-0.1349" y="1" relative="1" as="geometry">
            <mxPoint as="offset" />
          </mxGeometry>
        </mxCell>
        <mxCell id="LNcauqXgpq4mkPPqhFKb-15" value="" style="edgeStyle=orthogonalEdgeStyle;rounded=0;orthogonalLoop=1;jettySize=auto;html=1;" edge="1" parent="1" source="LNcauqXgpq4mkPPqhFKb-8" target="LNcauqXgpq4mkPPqhFKb-14">
          <mxGeometry relative="1" as="geometry" />
        </mxCell>
        <mxCell id="LNcauqXgpq4mkPPqhFKb-16" value="yes" style="edgeLabel;html=1;align=center;verticalAlign=middle;resizable=0;points=[];" vertex="1" connectable="0" parent="LNcauqXgpq4mkPPqhFKb-15">
          <mxGeometry x="-0.0726" y="-2" relative="1" as="geometry">
            <mxPoint as="offset" />
          </mxGeometry>
        </mxCell>
        <mxCell id="LNcauqXgpq4mkPPqhFKb-8" value="用户是否有作品推荐信息" style="rhombus;whiteSpace=wrap;html=1;" vertex="1" parent="1">
          <mxGeometry x="360" y="400" width="80" height="80" as="geometry" />
        </mxCell>
        <mxCell id="LNcauqXgpq4mkPPqhFKb-11" value="页面不出现获取藏品按钮" style="whiteSpace=wrap;html=1;" vertex="1" parent="1">
          <mxGeometry x="500" y="410" width="120" height="60" as="geometry" />
        </mxCell>
        <mxCell id="LNcauqXgpq4mkPPqhFKb-18" value="" style="edgeStyle=orthogonalEdgeStyle;rounded=0;orthogonalLoop=1;jettySize=auto;html=1;" edge="1" parent="1" source="LNcauqXgpq4mkPPqhFKb-14" target="LNcauqXgpq4mkPPqhFKb-17">
          <mxGeometry relative="1" as="geometry" />
        </mxCell>
        <mxCell id="LNcauqXgpq4mkPPqhFKb-19" value="no" style="edgeLabel;html=1;align=center;verticalAlign=middle;resizable=0;points=[];" vertex="1" connectable="0" parent="LNcauqXgpq4mkPPqhFKb-18">
          <mxGeometry x="0.1296" y="-2" relative="1" as="geometry">
            <mxPoint as="offset" />
          </mxGeometry>
        </mxCell>
        <mxCell id="LNcauqXgpq4mkPPqhFKb-21" value="" style="edgeStyle=orthogonalEdgeStyle;rounded=0;orthogonalLoop=1;jettySize=auto;html=1;" edge="1" parent="1" source="LNcauqXgpq4mkPPqhFKb-14">
          <mxGeometry relative="1" as="geometry">
            <mxPoint x="400" y="720.0000000000001" as="targetPoint" />
          </mxGeometry>
        </mxCell>
        <mxCell id="LNcauqXgpq4mkPPqhFKb-22" value="yes" style="edgeLabel;html=1;align=center;verticalAlign=middle;resizable=0;points=[];" vertex="1" connectable="0" parent="LNcauqXgpq4mkPPqhFKb-21">
          <mxGeometry x="-0.3033" relative="1" as="geometry">
            <mxPoint as="offset" />
          </mxGeometry>
        </mxCell>
        <mxCell id="LNcauqXgpq4mkPPqhFKb-14" value="该作品是否在推荐作品中" style="rhombus;whiteSpace=wrap;html=1;" vertex="1" parent="1">
          <mxGeometry x="360" y="560" width="80" height="80" as="geometry" />
        </mxCell>
        <mxCell id="LNcauqXgpq4mkPPqhFKb-17" value="页面不出现获取藏品按钮" style="whiteSpace=wrap;html=1;" vertex="1" parent="1">
          <mxGeometry x="500" y="570" width="120" height="60" as="geometry" />
        </mxCell>
        <mxCell id="LNcauqXgpq4mkPPqhFKb-23" value="页面出现获取藏品按钮" style="whiteSpace=wrap;html=1;" vertex="1" parent="1">
          <mxGeometry x="340" y="720" width="120" height="60" as="geometry" />
        </mxCell>
      </root>
    </mxGraphModel>
  </diagram>
</mxfile>
